<?xml version="1.0" standalone="no"?><!DOCTYPE svg PUBLIC "-//W3C//DTD SVG 1.1//EN" "http://www.w3.org/Graphics/SVG/1.1/DTD/svg11.dtd"><svg t="1605775071747" class="icon" viewBox="0 0 1024 1024" version="1.1" xmlns="http://www.w3.org/2000/svg" p-id="9298" xmlns:xlink="http://www.w3.org/1999/xlink" width="200" height="200"><defs><style type="text/css"></style></defs><path d="M392.716846 221.316129c87.718996-1.4681 162.22509 46.245161 172.134767 117.448029h-1.4681C543.197133 316.375627 510.898925 270.497491 472.728315 297.290323v20.18638c-56.521864-4.404301-75.607168 34.133333-100.197849 66.064516h-1.4681v-1.468101c20.92043-41.10681 23.856631-104.969176 21.65448-160.756989z m120.384229 124.78853c44.777061-0.73405 135.065233 13.212903 156.352688 35.968459v1.468101c-6.606452 1.835125-10.643728 4.037276-14.313978 8.441577v2.9362c9.175627 6.606452 16.516129 13.212903 31.564158 14.313979 1.4681-1.101075 2.936201-1.835125 4.404301-2.936201-1.101075-5.872401-1.835125-11.377778-2.936201-17.250179 65.330466 10.643728 126.990681 59.091039 137.634409 124.78853 3.303226 21.287455-9.175627 48.447312-7.340502 67.532617 2.202151 21.287455 1.835125 35.601434 7.340502 53.218638 5.872401 19.085305 52.117563 84.048746 1.4681 91.756272-22.021505-11.377778-103.13405-96.160573-106.070251-121.852329 2.936201-1.835125 5.872401-3.670251 8.441577-5.872402-0.367025-1.101075-1.101075-1.835125-1.4681-2.936201-55.787814-16.516129-92.857348-68.633692-77.442294-140.570609-51.016487-62.76129-65.330466-60.55914-149.012187-73.037993-28.994982 1.101075-58.356989 1.835125-87.351971 2.936201v-1.4681c17.984229-8.441577 36.335484-17.250179 54.319713-25.691757 14.681004-4.037276 29.362007-7.707527 44.410036-11.744803z m-51.750537 56.154839c2.936201 0.367025 5.872401 1.101075 8.441577 1.468101v1.4681c-21.287455 1.101075-41.10681 12.845878-57.255914 20.18638-82.94767 36.335484-137.267384 94.692473-161.858065 189.384946-6.606452 25.691756-6.973477 51.750538-5.872401 84.782796 0.367025 9.175627 1.101075 17.984229 1.4681 27.159856h-1.4681c-6.606452-30.096057-23.856631-57.255914-30.096058-90.288172-15.782079-81.112545 62.02724-197.092473 104.602151-223.518279 8.441577 3.670251 11.010753 12.478853 21.65448 14.313978 40.005735-8.808602 80.378495-16.883154 120.38423-24.957706z m67.532616 5.505377c45.878136-0.367025 101.298925 9.542652 104.602151 48.814336 2.202151 23.856631-4.404301 50.282437 4.404301 71.569893 15.048029 37.069534 44.777061 43.308961 71.569892 67.532616v1.468101c-78.176344 0.367025-106.437276-67.165591-170.666666-87.351972-132.863082-41.473835-257.284588 111.942652-282.242294 199.294624-1.101075-0.367025-1.835125-1.101075-2.936201-1.4681 2.936201-129.926882 74.873118-226.821505 166.262366-269.763441 33.032258-15.415054 73.037993-15.048029 109.006451-30.096057z m155.985663 140.570609c4.404301 22.021505 26.792832 36.702509 47.346237 42.941935-8.074552-11.744803-6.973477-22.021505-12.845878-33.032258-11.744803-3.670251-19.45233-8.808602-34.500359-9.909677z m-191.954122 9.909677c25.691756 1.835125 21.65448 16.883154 37.436559 25.691757 18.351254 8.441577 45.511111-5.505376 61.660216 0-1.101075 0.367025-1.835125 1.101075-2.936201 1.4681-31.197133 20.18638-97.261649 22.755556-117.448029-5.872402 0.367025-1.835125 1.101075-3.670251 1.468101-5.872401 6.239427-4.771326 13.212903-9.909677 19.819354-15.415054z m-83.314695 18.71828c55.053763 0.367025 46.612186 22.021505 77.442294 31.564158 39.63871 12.478853 75.607168-9.909677 106.070251-15.782079 13.579928 30.463082-30.830108 47.346237-48.814337 57.255914-89.187097 50.282437-112.676703-42.207885-217.645878-16.883154 1.4681-5.138351 1.101075-4.037276 4.404301-7.340502 14.681004-31.931183 45.511111-34.133333 78.543369-48.814337z m249.577061 37.436559c38.170609-1.101075 71.936918 15.048029 81.846595 41.473835-25.324731-15.782079-49.915412-33.032258-88.820072-35.968459v-1.4681c2.202151-1.101075 4.404301-2.569176 6.973477-4.037276z m-460.249462 17.250179c2.569176 1.835125 36.702509 91.756272 38.537634 99.096774-1.835125 8.441577-3.670251 17.250179-5.872401 25.691757-11.377778 19.45233-40.739785 17.250179-50.282438 38.537634-38.904659-11.744803-16.883154-73.405018-7.340502-97.628674 8.808602 2.936201 8.808602 2.202151 15.782079-2.9362 4.404301-20.553405 6.606452-42.207885 9.175628-62.761291z m129.192831 12.845878h4.404301c-1.101075 13.212903-2.569176 27.526882 4.404301 38.537635 8.441577 13.946953 57.622939 42.207885 73.037993 15.782079 2.202151-10.643728-9.909677-16.149104-15.782079-23.122581 43.675986 7.707527 75.240143 69.000717 58.724015 126.256631-1.101075-0.367025-1.835125-1.101075-2.936201-1.468101-23.489606-59.82509-141.304659-20.553405-180.576344-64.596415-0.367025-55.787814 20.92043-69.734767 58.724014-91.389248z m376.934767 5.505377c59.458065 1.835125 79.277419 47.713262 106.070251 83.314695-1.101075 1.4681-1.835125 2.936201-2.936201 4.404301-3.670251 1.4681-7.707527 2.936201-11.377777 4.404301-12.845878-2.936201-84.048746-79.644444-91.756273-92.123297z" fill="#DA3A2A" p-id="9299"></path></svg>