<?xml version="1.0" standalone="no"?><!DOCTYPE svg PUBLIC "-//W3C//DTD SVG 1.1//EN" "http://www.w3.org/Graphics/SVG/1.1/DTD/svg11.dtd"><svg t="1605775081185" class="icon" viewBox="0 0 1024 1024" version="1.1" xmlns="http://www.w3.org/2000/svg" p-id="9438" xmlns:xlink="http://www.w3.org/1999/xlink" width="200" height="200"><defs><style type="text/css"></style></defs><path d="M611.52 127.19S488 152.52 456.55 225.21l103.7 39.52c-0.01 0.01 2.69-99.51 51.27-137.54z" fill="#47A1DF" p-id="9439"></path><path d="M611.52 127.19h0.04m-0.04 0c-48.57 38.04-51.27 137.55-51.27 137.55l-103.7-39.53c31.44-72.69 154.97-98.02 154.97-98.02m0.01-26.43c-0.7 0-1.41 0.03-2.12 0.09-1.32 0.1-2.61 0.3-3.86 0.59C594 103.9 467.86 132.5 432.29 214.72a26.443 26.443 0 0 0-0.1 20.76c2.8 6.64 8.2 11.85 14.93 14.42l103.7 39.53c3.05 1.16 6.23 1.73 9.41 1.73 5.16 0 10.29-1.51 14.7-4.46a26.432 26.432 0 0 0 11.72-21.24c0.72-24.16 9.46-92.17 40.79-117.18 6.39-4.82 10.52-12.47 10.52-21.09 0-14.16-11.12-25.72-25.12-26.39a19.1 19.1 0 0 0-1.31-0.04z m-0.01 52.85h0.04-0.04zM466.36 717.06c-0.01 0 0 0 0 0-39.32 0-76.2-17.16-109.83-51.04-16.82 16.76-49.39 42.43-94.09 46.42-46.15 4.1-92.56-15.67-138.01-58.82-6.52-6.19-6.78-16.49-0.6-23.01 6.19-6.51 16.49-6.77 23.01-0.6 38.37 36.44 76.31 53.24 112.7 50.02 51.35-4.59 83.34-47.41 83.65-47.84 2.94-4 7.53-6.44 12.49-6.63 5.02-0.2 9.73 1.87 12.96 5.64 30.47 35.37 63.35 53.31 97.72 53.31 59.57 0 105.73-52.78 106.18-53.31 2.99-3.47 7.31-5.53 11.89-5.65 4.76-0.16 9.01 1.7 12.18 5 33.8 35.25 69.7 52.69 107.01 52.19 61.9-1.02 107.75-51.3 108.2-51.8 6.01-6.7 16.3-7.23 22.98-1.24 6.69 6.01 7.24 16.29 1.24 22.98-2.25 2.5-55.95 61.35-131.88 62.6-42.19 0.36-82.09-16.28-119.13-50.51-20.27 18.8-64.05 52.29-118.67 52.29z" fill="#480662" p-id="9440"></path><path d="M466.36 808.1c-0.01 0 0 0 0 0-39.32 0-76.2-17.16-109.83-51.04-16.82 16.76-49.39 42.43-94.09 46.42-46.15 4.08-92.56-15.68-138.01-58.82-6.52-6.19-6.78-16.49-0.6-23.01 6.19-6.52 16.49-6.77 23.01-0.6 38.37 36.44 76.31 53.26 112.7 50.02 51.35-4.59 83.34-47.41 83.65-47.84 2.94-4 7.53-6.44 12.49-6.63 5.02-0.22 9.73 1.88 12.96 5.64 30.47 35.37 63.35 53.31 97.72 53.31 59.57 0 105.73-52.78 106.18-53.31 2.99-3.47 7.31-5.53 11.89-5.65 4.76-0.33 9.01 1.7 12.18 5 33.8 35.24 69.7 52.43 107.01 52.19 61.9-1.02 107.75-51.3 108.2-51.8 6.01-6.69 16.3-7.23 22.98-1.24 6.69 6.01 7.24 16.29 1.24 22.98-2.25 2.5-55.95 61.34-131.88 62.6-42.19 0.62-82.09-16.28-119.13-50.51-20.27 18.81-64.05 52.29-118.67 52.29zM466.36 908.12c-0.01 0 0 0 0 0-39.32 0-76.2-17.16-109.83-51.04-16.82 16.76-49.39 42.43-94.09 46.42-46.15 4.1-92.56-15.67-138.01-58.82-6.52-6.19-6.78-16.49-0.6-23.01 6.19-6.51 16.49-6.77 23.01-0.6 38.37 36.44 76.31 53.24 112.7 50.02 51.35-4.59 83.34-47.41 83.65-47.84 2.94-4 7.53-6.44 12.49-6.63 5.02-0.13 9.73 1.88 12.96 5.64 30.47 35.37 63.35 53.31 97.72 53.31 59.57 0 105.73-52.78 106.18-53.31 2.99-3.47 7.31-5.53 11.89-5.65 4.76-0.33 9.01 1.7 12.18 5 33.8 35.25 69.7 52.67 107.01 52.19 61.9-1.02 107.75-51.3 108.2-51.8 6.01-6.7 16.3-7.23 22.98-1.24 6.69 6.01 7.24 16.29 1.24 22.98-2.25 2.5-55.95 61.34-131.88 62.6-42.19 0.53-82.09-16.29-119.13-50.51-20.27 18.81-64.05 52.29-118.67 52.29z" fill="#480662" p-id="9441"></path><path d="M226.87 441.61s-40.42-236.99 201.9-209.82c182.75 20.49 257.22 92.8 287.01 272.08l74.98 73.76s-99.36-27.8-158.8 22.08l32.31-73.52s-115.94-186.3-361.19-44.49c0 0-46.05-14.82-93.76 31.45 0 0-31.97-3.47-22.21-31.77l39.76-39.77z" fill="#7CCCF6" p-id="9442"></path><path d="M391.8 229.62c11.54 0 23.82 0.7 36.97 2.17 182.75 20.49 257.22 92.8 287.01 272.08l74.98 73.76s-27.6-7.72-62.42-7.72c-31.23 0-68.27 6.22-96.38 29.8l32.31-73.52s-60.83-97.74-187.56-97.74c-48.24 0-106.01 14.16-173.63 53.25 0 0-7.02-2.26-18.42-2.26-17.79 0-46.26 5.5-75.34 33.71 0 0-31.97-3.47-22.21-31.77l39.77-39.77c-0.01 0-36.13-211.96 164.92-211.99m0.03-26.42h-0.03c-65.12 0.01-115.24 20.27-148.96 60.23-48.04 56.93-46.63 136.53-43.73 168.58l-30.69 30.69a26.392 26.392 0 0 0-6.29 10.06c-6.87 19.91-1.82 34.32 3.63 42.91 12.53 19.76 36.11 23.25 40.71 23.75 0.95 0.1 1.9 0.15 2.85 0.15 6.83 0 13.44-2.65 18.39-7.45 22.38-21.7 43.32-26.26 56.95-26.26 5.75 0 9.61 0.84 10.56 1.08 2.68 0.95 5.34 1.4 7.97 1.4 4.49 0 8.88-1.33 13.11-3.77 57.04-32.98 111.01-49.71 160.4-49.7 87.1 0 138.6 51.58 157.25 74.61l-26.19 59.59a26.416 26.416 0 0 0 8.34 31.77 26.368 26.368 0 0 0 15.85 5.28c6.05 0 12.09-2.07 16.98-6.18 18.68-15.67 45.4-23.62 79.4-23.62 30.43 0 55.11 6.69 55.35 6.76 2.33 0.64 4.69 0.95 7.02 0.95 9.28 0 18.11-4.89 22.91-13.22 6.01-10.42 4.24-23.58-4.33-32.02L740.37 491C707.31 304.61 622.9 226.96 431.71 205.53c-13.81-1.54-27.23-2.33-39.88-2.33z" fill="#480662" p-id="9443"></path><path d="M314.64 475.38c114.11-62.2 199.31-52.95 257.01-26.39-31.4-37.38-80.79-74.29-146.3-55.8-68.39 19.3-97.93 55.01-110.71 82.19z" fill="#47A1DF" p-id="9444"></path><path d="M511.21 375.97l12.21 137.9c-75.01-11.16-116.94-124.06-116.94-124.06" fill="#47A1DF" p-id="9445"></path><path d="M523.43 527.08c-0.65 0-1.29-0.04-1.95-0.14-81.79-12.17-125.56-127.62-127.38-132.54-2.54-6.83 0.95-14.43 7.78-16.97 6.84-2.52 14.44 0.94 16.99 7.77 0.36 0.96 33.52 88.23 89.73 110.98l-10.54-119.03c-0.65-7.27 4.73-13.69 11.99-14.33 7.27-0.63 13.67 4.72 14.32 11.99l12.22 137.9c0.36 4.03-1.15 8.01-4.1 10.78a13.243 13.243 0 0 1-9.06 3.59z" fill="#480662" p-id="9446"></path><path d="M511.21 375.97l12.21 137.9c-75.01-11.16-116.94-124.06-116.94-124.06" fill="#7CCCF6" p-id="9447"></path><path d="M523.43 527.08c-0.65 0-1.29-0.04-1.95-0.14-81.79-12.17-125.56-127.62-127.38-132.54-2.54-6.83 0.95-14.43 7.78-16.97 6.84-2.52 14.44 0.94 16.99 7.77 0.36 0.96 33.52 88.23 89.73 110.98l-10.54-119.03c-0.65-7.27 4.73-13.69 11.99-14.33 7.27-0.63 13.67 4.72 14.32 11.99l12.22 137.9c0.36 4.03-1.15 8.01-4.1 10.78a13.243 13.243 0 0 1-9.06 3.59z" fill="#480662" p-id="9448"></path><path d="M308.97 372.65m-21.38 0a21.38 21.38 0 1 0 42.76 0 21.38 21.38 0 1 0-42.76 0Z" fill="#480662" p-id="9449"></path></svg>