<?xml version="1.0" standalone="no"?><!DOCTYPE svg PUBLIC "-//W3C//DTD SVG 1.1//EN" "http://www.w3.org/Graphics/SVG/1.1/DTD/svg11.dtd"><svg t="1605775115195" class="icon" viewBox="0 0 1024 1024" version="1.1" xmlns="http://www.w3.org/2000/svg" p-id="10506" xmlns:xlink="http://www.w3.org/1999/xlink" width="200" height="200"><defs><style type="text/css"></style></defs><path d="M969.9 506c-0.1-10-0.6-20.1-1.4-30.9-0.8-10.9-2.1-21.8-3.9-33.5-0.6-4.3-1.3-8.7-2.2-12.9-1-5.9-2.3-11.6-3.5-17.1-17.8-79.2-56.5-152.4-112.1-212 2-25.1 1.5-41.5 1.5-42.2-0.1-4.7-3.6-8.7-8.3-9.6-4.7-0.8-9.3 1.8-11 6.2-1.5 3.7-4.4 10.3-9.6 18.6-14.7-13.3-30.4-25.8-46.7-37.1-24.6-17-50.8-31.7-77.9-43.4C637.3 66.8 575.7 54 512 54c-114.4 0-223.1 42-307.5 118.6-5.2-8.3-8.1-14.8-9.6-18.5-1.7-4.4-6.3-7-11-6.2-4.7 0.8-8.2 4.8-8.3 9.6 0 0.7-0.5 17.1 1.5 42.1-55.6 59.6-94.4 132.8-112.2 212-1.2 5.4-2.4 11.2-3.5 17-0.8 4.1-1.5 8.1-2.2 13-1.5 10.1-2.8 20.4-3.7 31.6-0.1 0.8-0.2 1.5-0.2 2-1 12.1-1.5 24.5-1.5 36.8 0 6.3 0.2 13.2 0.5 21l0.3 6.1c0.1 2.5 0.2 4.6 0.4 6.8 0.1 1.3 0.2 2.6 0.3 3.7 1.1 13.9 2.9 28.1 5.4 42.1 2.4 13.6 5.4 27.1 8.9 40.1v0.2l0.3 0.9c1.3 4.6 2.7 9.3 4 13.8v0.1c2 6.5 4.2 13.1 7.3 21.7l1.2 3c0.4 0.9 0.7 1.9 1 2.8 0 0.1 0.1 0.3 0.2 0.4l0.6 1.5c0.3 0.7 0.5 1.4 0.8 2.1 0.2 0.4 0.3 0.8 0.5 1.2l0.6 1.5c0.1 0.3 0.2 0.5 0.3 0.8 3.2 8 6 14.4 8.6 20.1 0.3 0.7 0.6 1.3 0.9 2 0.3 0.6 0.5 1.1 0.8 1.7l0.6 1.2c0.8 1.6 1.5 3.2 2.3 4.7 4 8.3 8.4 16.6 13 24.9 2.8 4.9 5.7 9.8 8.7 14.7 2.4 4 5.1 8.2 8.2 12.8 0.2 0.3 0.3 0.5 0.5 0.7 0.1 0.2 0.2 0.3 0.3 0.5 0.1 0.2 0.3 0.4 0.5 0.7 1.4 2.1 2.8 4.1 4.2 6.1 1.4 2 2.9 4.1 4.3 6.1 2.8 4 5.9 8.2 10 13.5 39.3 50.9 89.6 93.5 146 123.9 3.8 2 7.6 4 11.4 5.9 8 4 16.1 7.8 24.3 11.3 57 24.9 117.8 37.4 181 37.4 4.6 0 9.2-0.1 13.8-0.2 35.9-1 71-6.2 105-15.3 1.1-0.3 2.1-0.6 3.2-0.9 3.3-0.9 6.6-1.9 9.9-2.9 0.6-0.2 1.2-0.3 1.7-0.5 0.2-0.1 0.5-0.1 0.7-0.2 4.1-1.2 8.1-2.5 12.1-3.9h0.1c17-5.8 33.7-12.5 50-20.4 4.1-2 8.2-4 12.2-6.1 1.7-0.9 3.3-1.7 4.8-2.5 0.2-0.1 0.3-0.2 0.5-0.2 1.2-0.6 2.4-1.3 3.6-1.9 0.2-0.1 0.4-0.2 0.7-0.4 0.5-0.3 0.9-0.5 1.4-0.8 0.4-0.2 0.8-0.5 1.2-0.7 0.6-0.3 1.1-0.6 1.7-0.9 12.7-7.1 25.1-14.8 37-23 0.6-0.4 1.3-0.9 1.9-1.3 0.2-0.1 0.4-0.3 0.5-0.4 27.6-19.3 53-41.6 75.9-66.7 1-1.1 1.9-2.1 2.9-3.2l0.1-0.1c2.5-2.8 5-5.7 7.5-8.5 5.5-6.4 10.2-12.2 14.3-17.6 4.4-5.8 8.6-11.5 12.1-16.5 2.3-3.1 4.5-6.4 6.5-9.5 0.5-0.6 0.8-1.2 1-1.5 11.1-16.7 21.2-34.4 29.9-52.5 1.7-3.6 3.5-7.4 5.6-12.1 1.9-4.2 3.9-8.8 6.2-14.4 0.1-0.1 0.1-0.3 0.2-0.4 0.3-0.8 0.6-1.7 1-2.5l1.2-3c1.3-3.4 2.6-6.9 3.9-10.5 4.5-12.3 8.4-24.5 11.5-36.2 0.1-0.3 0.2-0.6 0.2-1 0-0.2 0.1-0.3 0.1-0.5 1.5-6 3.1-12.1 4.5-18.3 1.6-6.9 2.8-13 3.8-18.6 0.1-0.3 0.1-0.6 0.2-1 2.5-13.9 4.4-28.5 5.6-43.4 0.1-1.2 0.2-2.5 0.3-3.9 0.3-4 0.5-8.1 0.7-12.1v-0.6c0.3-7.9 0.5-14.5 0.5-20.9 0.3-1.9 0.3-4 0.2-6z m-27.1-73.7v0.1c0.8 4 1.4 8.1 2 12.1v0.1c1.7 11.1 3 21.5 3.7 31.9 0.8 10.5 1.3 20.2 1.4 29.8v0.5c0.1 1.5 0.1 3.4 0.1 5.1 0 6.1-0.2 12.5-0.5 20v0.6c-0.2 3.8-0.4 7.8-0.7 11.6-0.1 1.3-0.2 2.6-0.3 3.7-1.2 14.3-3 28.2-5.3 41.3-0.1 0.3-0.1 0.6-0.2 1-1 5.4-2.2 11.3-3.7 18-0.7 3.3-1.5 6.6-2.4 9.9-15.6-2.9-25.6-9.8-38.6-18.8l-0.7-0.5c-19.9-13.9-44.6-31.3-90.8-31.3-46.5 0-71.2 17.4-91.1 31.5-17.5 12.4-29.1 20.5-56.5 20.5s-39-8.2-56.6-20.6l-0.2-0.1c-9.9-6.9-21-14.7-35.2-20.7-2.9-21.2 3.8-37.7 21.7-54.3 19.7-18.2 51.4-35.3 91.5-56.9 15.8-8.5 32.1-17.3 49.8-27.2 78.5-44.3 105-144.8 113.8-213.2 46.8 54.4 79.6 119.5 95.3 189.5 1.3 5.3 2.5 10.8 3.5 16.4z m-802 312.5c-0.9-1.4-1.7-2.7-2.5-4-2.9-4.6-5.6-9.3-8.3-14.1l-0.3-0.6c-0.8-1.4-1.5-2.8-2.3-4.1-0.2-0.4-0.5-0.8-0.7-1.3-0.6-1.2-1.3-2.3-1.9-3.5-0.3-0.5-0.5-1-0.8-1.6-0.6-1.1-1.1-2.1-1.7-3.2-0.3-0.6-0.6-1.1-0.9-1.7-0.5-1-1-2-1.5-3.1-0.3-0.5-0.5-1.1-0.8-1.6-0.5-1-1-2.1-1.5-3.1 8.4-4.2 15.6-9.3 23.1-14.6 19.4-13.7 39.5-27.9 79.5-27.9s60.1 14.2 79.5 27.9c18.3 12.9 34.2 24.1 68.1 24.1 33.6 0 49.5-11.1 67.8-24l0.3-0.2c19.4-13.7 39.5-27.9 79.5-27.9s60.1 14.2 79.5 27.9c18.3 12.9 34.2 24.1 68.1 24.1 33.6 0 49.5-11.1 67.8-24l0.3-0.2c19.4-13.7 39.5-27.9 79.5-27.9s60.1 14.2 79.5 27.9c0.1 0 0.1 0.1 0.2 0.1l2.6 1.7c5 3.4 9.8 6.6 14.9 9.6-0.1 0.2-0.2 0.3-0.2 0.5-0.4 0.8-0.8 1.7-1.2 2.5-1 2.1-2.1 4.2-3.1 6.3l-0.1 0.3c-1.8 3.7-3.8 7.3-5.7 10.9l-1.5 2.7c-0.7 1.2-1.4 2.4-2 3.7-0.2 0.3-0.3 0.6-0.5 0.8-3.3 5.8-6.8 11.6-10.3 17.2-18.5-11.6-41.1-21.1-75.6-21.1h-0.5c-46.4 0-71.2 17.5-91 31.5l-0.2 0.2c-16.8 11.8-29 20.3-56.3 20.3-27.4 0-39-8.2-56.6-20.6l-0.2-0.1c-19.9-13.9-44.6-31.3-90.8-31.3-46.4 0-71.2 17.5-91 31.5l-0.2 0.2c-16.8 11.8-29 20.3-56.3 20.3-27.5 0-39.7-8.6-56.5-20.5-19.9-14-44.7-31.5-91.1-31.5-36 0.3-58.5 10.4-76.1 21.5zM105 674.3c-0.1-0.1-0.1-0.3-0.2-0.4-0.2-0.4-0.4-0.9-0.6-1.4-0.2-0.6-0.5-1.2-0.7-1.8l-0.6-1.5c-0.2-0.6-0.5-1.3-0.7-1.9-0.3-0.9-0.7-1.9-1.1-2.8-0.4-0.9-0.7-1.9-1-2.7-2.9-8.2-5.1-14.6-7-20.8-0.3-1.2-0.7-2.3-1-3.5v-0.1c19.2-3.9 31.8-12.7 44.9-22 19.3-13.7 39.4-27.8 79.5-27.8 39.9 0 60 14.1 79.4 27.6l0.2 0.1c18.4 13 34.3 24.2 68 24.2 33.8 0 49.6-11.2 68.1-24.2 5.8-4.1 11.7-8.2 18.2-12-12.1 37.6-30.7 65-42.2 79.5-10.6 6-22.1 9.8-40.3 9.8-27.5 0-39.7-8.6-56.5-20.5-19.9-14-44.7-31.5-91.1-31.5-46.4 0-71.2 17.5-91.1 31.5-6.9 4.9-13.1 9.2-19.9 12.7-1.3-3.2-2.8-6.7-4.3-10.5z m92.4-472c-0.2-1.9-0.3-3.8-0.5-5.6 24.7 32 80.8 82.2 189.2 82.2 105.3 0 115 37.9 115.8 47v2.2c-0.3 2.7 0.5 5.3 2.2 7.4 1.9 2.3 4.8 3.5 7.8 3.5h0.1c2.9 0 5.6-1.3 7.5-3.4 1.7-2 2.6-4.5 2.4-7.1v-1-1.5c0.8-9 10.4-47 115.8-47 59.5 0 110.1-15 150.5-44.6 14.9-10.9 27.9-23.6 38.7-37.7-0.1 1.9-0.3 3.8-0.5 5.8-12.5 146.3-71.7 200.5-105.9 219.8-17.5 9.9-33.7 18.6-49.4 27-41.4 22.3-74.1 39.9-95.6 59.9-24.5 22.7-33 47.5-26.9 78.1 0.3 1.7 0.8 3.5 1.2 5.4 5.7 22.7 13.8 42.4 22.3 58.9-14.7-6.4-32.8-11-56.6-11-29.2 0-49.8 6.9-66 15.6 9.4-17.3 18.5-38.6 24.7-63.4 0.5-1.9 0.9-3.8 1.3-5.8 6-30.5-2.5-55.2-26.9-77.8-21.5-19.9-54.1-37.4-95.3-59.7-15.8-8.5-32.1-17.3-49.7-27.2-34.3-19.3-93.5-73.4-106.2-220z m726.4 459.2c-1.3 3.5-2.6 6.9-3.9 10.3v0.1c-0.3 0.8-0.6 1.7-1 2.5-0.4 1-0.8 1.9-1.1 2.9-0.6 1.5-1.2 2.8-1.7 4.2-3.8-2.3-7.7-4.9-11.9-7.7l-2.5-1.7c-19.9-14-44.7-31.5-91-31.5-46.4 0-71.2 17.5-91 31.5l-0.2 0.2c-16.8 11.8-29 20.3-56.3 20.3-26.1 0-38.4-7.7-54-18.6-11.2-15.6-25.5-39.5-35.4-70.1 6.1 3.6 11.8 7.6 17.3 11.4l0.2 0.1c18.4 13 34.3 24.2 68 24.2 33.8 0 49.6-11.2 68.1-24.2 19.3-13.7 39.4-27.8 79.5-27.8 39.9 0 60 14.1 79.3 27.6l0.8 0.5c13.7 9.5 25.9 17.9 44.8 21.7-2.4 8-5 16-8 24.1zM686.9 110.4c25.9 11.3 51 25.3 74.5 41.5 16.2 11.2 31.7 23.6 46.2 36.9-9 10.8-19.4 20.7-31.1 29.3-36.9 27-83.5 40.8-138.7 40.8-51 0-88.5 8.7-111.5 25.7-6.2 4.6-10.9 9.5-14.4 14.3-3.5-4.8-8.1-9.7-14.4-14.3-23-17.1-60.5-25.7-111.5-25.7-95 0-145.8-41.1-169.8-70C297.3 114.7 401.9 74 512 74c61 0 119.8 12.2 174.9 36.4z m-611.6 366v-0.3c0-0.2 0.1-0.4 0.1-0.7 0.9-11 2.1-21 3.6-30.7 0.8-4.7 1.4-8.6 2.2-12.4v-0.1c1-5.5 2.2-11.1 3.3-16.3 15.7-70 48.5-135.1 95.4-189.5 8.8 68.5 35.3 169.1 113.8 213.3 17.8 10.1 34.2 18.9 50.1 27.4 40 21.5 71.6 38.6 91.2 56.7 17.9 16.5 24.5 32.9 21.8 53.9-14.7 6.1-26 14.1-36.1 21.2-17.5 12.4-29.1 20.5-56.5 20.5s-39-8.2-56.6-20.6l-0.2-0.1c-19.9-13.9-44.6-31.3-90.8-31.3-46.5 0-71.2 17.4-91.1 31.4-13 9.1-22.8 16.1-38.7 19-2.4-9.8-4.6-19.8-6.3-29.9-2.4-13.4-4.1-26.9-5.2-40.3-0.1-1.2-0.2-2.5-0.3-3.7v-0.2c-0.2-1.8-0.3-3.7-0.4-6l-0.3-6c-0.3-7.5-0.5-14-0.5-20.1 0-11.6 0.5-23.5 1.5-35.2zM512 950c-69.1 0-135.2-15.6-196.4-46.4-58.4-29.4-110.5-72.3-150.5-124.2-3.8-5-6.8-9-9.5-12.8-1-1.4-2-2.9-3-4.3-0.2-0.3-0.4-0.6-0.6-0.8 15.4-9.6 34.3-17.8 64.8-17.8 40 0 60.1 14.2 79.5 27.9 18.3 12.9 34.2 24.1 68.1 24.1 33.6 0 49.5-11.1 67.8-24l0.3-0.2c19.4-13.7 39.5-27.9 79.5-27.9 39.9 0 60 14.1 79.4 27.6l0.2 0.1c18.4 13 34.3 24.2 68 24.2 33.6 0 49.5-11.1 67.8-24l0.3-0.2c19.4-13.7 39.5-27.9 79.6-27.9h0.4c30.3 0 49.5 8.4 64.5 17.8-0.5 0.6-0.9 1.3-1.4 1.9 0 0.1-0.1 0.1-0.1 0.2-3.4 4.8-7.4 10.4-11.7 15.9-3.9 5.1-8.4 10.6-13.7 16.8-4.6 5.4-9.2 10.6-14 15.7l-0.1 0.1c-0.5 0.5-1 1.1-1.5 1.6-1.5 1.6-3.1 3.2-4.6 4.8-0.4 0.4-0.8 0.9-1.3 1.3-1 1-2 2.1-3.1 3.1-0.7 0.7-1.5 1.5-2.3 2.2-0.7 0.7-1.4 1.3-2 2-1.1 1-2.1 2.1-3.2 3.1-0.9 0.8-1.7 1.6-2.6 2.5l-1.4 1.3c-0.6 0.5-1.2 1.1-1.8 1.6-2.2 2-4.2 3.8-6 5.4-1 0.9-2 1.8-3 2.6-1 0.9-2 1.7-3 2.6-0.3 0.3-0.6 0.5-0.9 0.8 0 0-0.1 0-0.1 0.1-0.2 0.2-0.4 0.3-0.5 0.5-0.2 0.1-0.3 0.3-0.5 0.4-0.6 0.5-1.2 1-1.9 1.6-0.6 0.5-1.2 1-1.7 1.4l-0.1 0.1c-0.2 0.1-0.3 0.3-0.5 0.4l-0.2 0.2-0.1 0.1c-0.1 0.1-0.3 0.3-0.5 0.4l-0.1 0.1c-0.6 0.5-1.2 1-1.8 1.4l-0.1 0.1c-0.4 0.3-0.8 0.7-1.3 1-0.1 0-0.1 0.1-0.2 0.2-0.1 0-0.1 0.1-0.1 0.1-1 0.8-1.9 1.5-3 2.3-0.9 0.7-1.8 1.4-2.8 2.2l-0.2 0.2c-0.1 0-0.1 0.1-0.2 0.1-0.9 0.7-1.9 1.4-2.9 2.2-1 0.7-2 1.5-3 2.2-0.9 0.7-1.8 1.3-2.7 2h-0.1c-0.1 0.1-0.2 0.1-0.3 0.2-0.7 0.5-1.3 1-2 1.4l-0.1 0.1c-0.1 0-0.1 0.1-0.2 0.1-0.1 0.1-0.2 0.1-0.2 0.2l-0.6 0.5c-0.2 0.2-0.5 0.4-0.7 0.5-0.1 0.1-0.3 0.2-0.4 0.3 0 0-0.1 0-0.1 0.1-0.2 0.2-0.4 0.3-0.6 0.5-0.1 0.1-0.2 0.1-0.3 0.2-0.2 0.1-0.4 0.3-0.6 0.4 0 0-0.1 0-0.1 0.1-0.4 0.3-0.7 0.5-1.1 0.8-0.1 0.1-0.2 0.1-0.3 0.2-1.4 1-2.8 2-4.3 2.9-3 2-5.9 4-8.8 5.8h-0.1s-0.1 0-0.1 0.1c-0.2 0.1-0.3 0.2-0.5 0.3l-0.3 0.2-0.1 0.1c-1.7 1.1-3.5 2.2-5.2 3.3-0.2 0.1-0.4 0.3-0.6 0.4-1.6 1-3.3 2-4.9 3-1.6 1-3.3 2-5 2.9-0.4 0.2-0.7 0.4-1.1 0.6l-0.1 0.1c-0.1 0-0.2 0.1-0.2 0.1-0.1 0.1-0.2 0.1-0.3 0.2 0 0-0.1 0-0.1 0.1l-0.1 0.1c-0.1 0-0.1 0.1-0.2 0.1-0.3 0.1-0.5 0.3-0.8 0.4-1.2 0.7-2.4 1.3-3.6 2-1.2 0.7-2.5 1.4-3.7 2.1-0.4 0.2-0.8 0.5-1.3 0.7-2.9 1.6-5.9 3.2-8.9 4.7-62.4 32-129.6 48.2-200 48.2z" p-id="10507"></path></svg>