<?xml version="1.0" standalone="no"?><!DOCTYPE svg PUBLIC "-//W3C//DTD SVG 1.1//EN" "http://www.w3.org/Graphics/SVG/1.1/DTD/svg11.dtd"><svg t="1605775049613" class="icon" viewBox="0 0 1024 1024" version="1.1" xmlns="http://www.w3.org/2000/svg" p-id="8324" xmlns:xlink="http://www.w3.org/1999/xlink" width="200" height="200"><defs><style type="text/css"></style></defs><path d="M541.559223 505.158175c2.907213-1.37737 20.889773-2.292206 28.235065 0 0.907673-4.956895-1.316995-16.015765-5.720282-18.558681-16.084327-9.277294-41.321104-14.485923-59.644425-14.747889-7.003508-0.105401-11.965519 0.615007-13.684674 1.898233-2.839675 2.111081-4.547573 6.898107-10.348696 31.408337-2.479471 10.5421-7.015787 22.522969-13.772678 31.045063-11.797697 14.85022-30.022781 24.378224-50.464345 24.378224-35.585473 0-64.389496-32.0653-64.431451-64.423265-0.026606-29.424146 19.405979-54.265928 46.578852-61.951981 4.972245-1.397836 10.640338-2.577708 12.0525-6.999414 1.328251-4.167926-0.827855-6.458085-2.768043-8.614192-61.1098-67.927065-118.699426-134.336568-165.339676-231.470839-2.023076-4.225231-3.681856-5.106298-5.351891-5.39487-1.9934-0.340761-4.160763 0.440022-6.191003 3.070942-22.488177 29.093619-12.929474 73.272817 13.787004 106.905822 29.442566 37.058011 61.46284 72.968895 96.166223 107.672278-51.437509-36.878932-103.773482-79.570243-148.878772-133.315308-2.953262-3.51915-4.725628-3.947915-6.392594-3.822049-1.970888 0.159636-3.837398 1.419326-5.128811 4.40738-14.334473 33.064047 5.417383 72.698742 38.907125 98.18623 32.908504 24.977881 67.604724 48.548716 104.157221 70.63064-54.337559-21.266349-111.251803-47.25014-164.135244-85.127819-3.643993-2.63092-5.443989-2.604314-6.980995-2.087545-1.836835 0.626263-3.310396 2.28095-3.814886 5.424546-5.609765 34.843576 22.723537 67.691705 60.669778 83.780125 33.861202 14.277168 68.880787 27.031657 105.0915 38.211277-48.460712-6.005784-99.666954-15.196097-150.291958-33.974789-4.122901-1.545192-5.811356-1.067308-7.139607-0.179079-1.571798 1.059122-2.52859 2.99931-2.202155 6.105045 3.643993 34.350342 38.83447 58.121745 78.81095 63.580061 29.719882 3.982708 59.94323 6.727215 90.677209 8.184403-43.138496 5.182023-89.382727 8.620331-137.263224 3.799536-4.285606-0.451278-5.758144 0.421602-6.79066 1.587148-1.237177 1.393743-1.671059 3.477194-0.591471 6.332219 11.908214 31.636534 51.095725 45.473681 90.290399 40.804335 23.394826-2.854001 46.893007-6.563486 70.511937-11.137665-33.348526 12.45159-60.387345 22.49227-98.660021 28.983101-4.163833 0.684592-5.326309 1.886977-5.997598 3.261277-0.793062 1.629103-0.671289 3.701299 1.085728 6.115278 14.858406 19.784602 43.712571 26.208918 75.337849 16.717753 15.20633-4.554736 38.537711-12.405541 53.296857-18.316158-24.673959 15.886829-37.436634 21.63781-65.314565 34.418904-3.736091 1.704828-4.526083 3.151783-4.814656 4.616134-0.329505 1.734504 0.299829 3.690042 2.597151 5.490038 23.677259 18.555611 50.143027 10.238179 70.497611 2.485611 12.682857-4.823865 25.298176-10.032494 37.839817-15.403828-10.598382 8.218172-21.573341 16.174378-32.965809 23.781636-3.313465 2.210341-3.849678 3.709485-3.894703 5.155417-0.049119 1.707898 0.86981 3.443425 3.321652 4.840238 19.846 11.273764 44.406372 7.215332 65.995063-6.111185-8.16496 13.771655-18.49012 25.475208-29.719882 34.771945 4.195555 1.601474 14.728446 1.035586 19.159362-0.679475-5.306866 7.865131-9.449209 15.965623-15.343453 23.394826-9.813506 12.341073-23.087834-11.199063-36.621059-6.66684-0.880043 0.296759-1.654686 0.684592-2.266623 1.545192-4.574179 0.907673-9.80839 5.955642-8.461719 14.84715 3.872191-6.431479 8.598842-6.989181 11.836583-6.798846 6.099928 1.058099 9.209756 2.904143 12.227486 4.903683-6.529717-1.730411-20.058848 1.367137-20.939915 9.611915-3.849678 5.64865-5.287423 13.093203 1.89414 19.955494 0.656963-16.452717 13.035898-20.973684 24.910343-20.332071-7.258311 2.114151-16.160051 9.391904-13.544481 17.940604-0.88823 4.574179 1.961678 12.691043 10.720156 14.785751-3.237741-4.084015-4.02057-9.379625-2.296299-13.517875 2.762927-6.616698 9.968026-10.238179 15.157211-11.468193 10.204409-2.425236 19.277042 0.553609 23.266913 4.597715 2.079358 2.114151 3.28686 7.052626 1.183965 11.156084 5.854335-2.926656 7.384178-10.488889 6.378268-14.648628 0.364297-0.38374 0.671289-0.915859 0.414439-1.947352-2.016937-8.074909-16.646122-8.05956-9.118682-16.706497l16.528442-18.950607c-0.326435 5.070482 2.111081 11.964496 4.956895 15.96153 7.247054-15.479553 18.950607-33.603329 31.462572-46.543036-12.640901 37.360909-32.593326 77.204359-55.301514 107.478873-1.711991 2.273786-1.77646 3.462868-1.533936 4.494361 0.288572 1.246387 1.195222 2.289136 3.024893 2.7793 15.765055 4.194532 31.705096-5.197372 43.24492-20.961404-4.490268 14.728446-9.69071 29.435403-15.753799 44.004213-1.130753 2.691295-0.930185 3.852748-0.448208 4.790096 0.568958 1.109264 1.682315 1.863441 3.568269 1.807159 16.926508-0.547469 30.623461-15.476483 37.908378-35.341926 0.820692 32.107255 4.578272 57.947783 15.996322 57.947783 11.422144 0 15.162328-25.840528 15.989159-57.947783 7.29208 19.86442 20.989033 34.794457 37.915541 35.341926 1.87879 0.060375 2.995217-0.698918 3.568269-1.807159 0.474814-0.933255 0.683569-2.098801-0.448208-4.790096-6.067182-14.56881-11.266601-29.275767-15.753799-44.004213 11.539824 15.765055 27.479865 25.155936 43.237757 20.961404 1.822508-0.490164 2.744507-1.533936 3.03308-2.7793 0.23536-1.028423 0.170892-2.220574-1.533936-4.494361-22.708188-30.273491-42.657542-70.117964-55.301514-107.478873 12.511965 12.94073 24.207331 31.05939 31.454386 46.543036 2.846838-3.997034 5.291516-10.891048 4.965082-15.96153l16.517185 18.950607c7.54279 8.646937-7.095605 8.631588-9.106402 16.706497-0.254803 1.031493 0.053212 1.563612 0.414439 1.947352-1.00591 4.15974 0.51984 11.721973 6.365988 14.648628-2.092661-4.103458-0.881067-9.042957 1.195222-11.156084 3.978614-4.044106 13.066597-7.02295 23.271006-4.597715 5.185093 1.230014 12.393261 4.851495 15.145955 11.468193 1.731434 4.13825 0.941442 9.432837-2.285043 13.517875 8.742105-2.094708 11.589966-10.211573 10.716063-14.785751 2.616594-8.5487-6.28617-15.82543-13.544481-17.940604 11.873422-0.641613 24.249287 3.879354 24.90625 20.332071 7.185656-6.863315 5.746888-14.306844 1.89414-19.955494-0.873903-8.244778-14.406105-11.343349-20.935822-9.611915 3.01773-1.99954 6.127558-3.845585 12.215206-4.903683 3.233648-0.190335 7.975649 0.367367 11.847839 6.798846 1.346671-8.891508-3.891633-13.939477-8.461719-14.84715-0.6191-0.860601-1.385557-1.248434-2.273786-1.545192-13.533224-4.532223-26.808576 19.007913-36.617989 6.66684-5.89936-7.429203-10.032494-15.530718-15.340383-23.394826 4.426823 1.715061 14.963807 2.28095 19.147082 0.679475-11.235902-9.29776-21.546735-21.007453-29.711695-34.776038 21.592784 13.32754 46.157249 17.389042 65.999157 6.115278 2.451842-1.397836 3.373841-3.13234 3.321652-4.840238-0.046049-1.445932-0.581238-2.945075-3.894703-5.155417-11.392468-7.607258-22.367427-15.563464-32.965809-23.781636 12.545734 5.371334 25.15696 10.579963 37.839817 15.403828 20.354584 7.752568 46.820352 16.070001 70.497611-2.485611 2.296299-1.799996 2.925632-3.755534 2.596128-5.490038-0.287549-1.464351-1.077541-2.911306-4.813632-4.616134-27.877931-12.781094-40.636512-18.536168-65.315588-34.418904 14.763239 5.910617 38.090527 13.761422 53.29788 18.316158 31.633465 9.487072 60.480466 3.062755 75.337849-16.721847 1.757017-2.409886 1.885953-4.483104 1.085728-6.112208-0.672312-1.3743-1.833765-2.576685-5.997598-3.261277-38.272675-6.490831-65.308425-16.531512-98.661044-28.983101 23.619954 4.574179 47.122227 8.283664 70.51296 11.137665 39.194674 4.665253 78.381162-9.166777 90.290399-40.807405 1.078565-2.850931 0.645706-4.934382-0.584308-6.332219-1.040702-1.161453-2.51324-2.034333-6.798846-1.583055-47.880497 4.820796-94.124727 1.381463-137.264247-3.799536 30.732955-1.457188 60.95835-4.201695 90.678232-8.184403 39.977503-5.458315 75.166957-29.229718 78.81095-63.584154 0.326435-3.101641-0.63445-5.04183-2.202155-6.100952-1.328251-0.88823-3.021823-1.366114-7.136537 0.179079-50.628074 18.778692-101.834316 27.969005-150.295028 33.971719 36.211736-11.175527 71.230298-23.931039 105.0915-38.207184 37.94624-16.08842 66.275449-48.939619 60.668755-83.780125-0.50449-3.143597-1.977028-4.799306-3.813862-5.424546-1.537006-0.520863-3.332908-0.547469-6.980995 2.083451-52.883441 37.881772-109.797685 63.865563-164.135244 85.127819 36.552497-22.078855 71.248717-45.648666 104.156198-70.626547 33.485649-25.487487 53.240575-65.122183 38.906102-98.190323-1.290389-2.982938-3.157923-4.247744-5.127787-4.403287-1.662873-0.124843-3.439332 0.302899-6.392594 3.817955-45.105291 53.745065-97.442286 96.440469-148.878772 133.319401 34.704406-34.704406 66.731844-70.615291 96.166223-107.672278 26.716478-33.633005 36.275181-77.812203 13.787004-106.905822-2.031263-2.63092-4.198625-3.411703-6.187933-3.070942-1.674129 0.288572-3.332908 1.168616-5.357008 5.390777-46.635133 97.138364-104.229876 163.547867-165.338652 231.474932-1.940189 2.156106-4.096295 4.446265-2.768043 8.614192 1.420349 4.425799 7.083326 5.602601 12.0525 7.003508 27.175943 7.687076 46.604434 32.524764 46.578852 61.948911-0.037862 32.357965-28.842909 64.423265-64.427358 64.423265-20.441565 0-38.670741-9.529027-50.465368-24.378224C548.566824 527.680121 544.036647 515.707438 541.559223 505.158175L541.559223 505.158175 541.559223 505.158175zM510.977717 728.627782c-3.865028 31.298843-7.762801 63.99757 0 94.488001C518.743588 792.625352 514.844791 759.926626 510.977717 728.627782L510.977717 728.627782 510.977717 728.627782zM557.384653 806.755164c-15.35164-40.182164-18.915815-59.871599-23.786753-87.264483C530.899442 748.788961 533.386076 788.514731 557.384653 806.755164L557.384653 806.755164 557.384653 806.755164zM585.323982 778.841418c-24.222681-35.535331-32.244378-53.881165-43.317575-79.399351C546.155914 728.570477 557.753043 766.645654 585.323982 778.841418L585.323982 778.841418 585.323982 778.841418zM464.569758 806.755164c15.355733-40.182164 18.915815-59.871599 23.789823-87.264483C491.054969 748.788961 488.568335 788.514731 464.569758 806.755164L464.569758 806.755164 464.569758 806.755164zM436.634522 778.841418c24.222681-35.535331 32.244378-53.881165 43.317575-79.399351C475.80259 728.570477 464.201367 766.645654 436.634522 778.841418L436.634522 778.841418 436.634522 778.841418zM197.487863 288.655236c45.309952 52.940746 91.895967 88.620363 151.555741 130.475634-52.443419-29.819143-97.521081-56.853869-112.470561-68.565609C218.726583 336.580758 197.74983 312.987411 197.487863 288.655236L197.487863 288.655236 197.487863 288.655236zM824.467571 288.655236c-45.305859 52.940746-91.892897 88.620363-151.555741 130.475634 52.443419-29.819143 97.521081-56.853869 112.474654-68.565609C803.227828 336.580758 824.204581 312.987411 824.467571 288.655236L824.467571 288.655236 824.467571 288.655236zM632.953769 653.980665c-17.531282-12.932544-29.595039-25.282826-42.895973-41.388643C599.148849 632.342856 610.032734 651.266857 632.953769 653.980665L632.953769 653.980665 632.953769 653.980665zM777.510096 216.673831c-38.708604 74.452689-84.110653 130.653689-132.37796 185.269587 43.434232-41.010019 98.956779-100.772124 110.762663-115.637694C769.992889 268.547269 782.918269 240.399185 777.510096 216.673831L777.510096 216.673831 777.510096 216.673831zM700.657754 634.012891c-24.414039-11.206226-42.080397-23.080671-62.188364-39.186488C654.40943 616.384395 672.299893 636.492362 700.657754 634.012891L700.657754 634.012891 700.657754 634.012891zM763.053849 598.599334c-45.827745-11.084453-65.836451-20.100804-93.600795-32.703843C694.245717 586.520227 731.672118 608.947006 763.053849 598.599334L763.053849 598.599334 763.053849 598.599334zM820.378439 536.312732c-45.959751 2.467191-69.704548 0.979304-134.00297-8.192589 24.394596 10.151197 43.040259 17.523095 70.039169 20.574594C777.179568 551.041178 803.75483 551.035038 820.378439 536.312732L820.378439 536.312732 820.378439 536.312732zM845.778946 459.403085c-49.497321 15.280008-74.529437 21.151739-149.612483 28.122501 28.452006 2.49789 62.089104 5.595438 91.020016 1.3743C808.094672 485.854527 834.033437 477.933113 845.778946 459.403085L845.778946 459.403085 845.778946 459.403085zM854.919117 370.427634c-56.80475 38.033221-94.500281 54.299697-163.692153 79.904865 56.167231-13.594623 92.219331-23.357987 109.715821-30.729885C821.836651 410.795017 848.275813 393.83781 854.919117 370.427634L854.919117 370.427634 854.919117 370.427634zM389.000642 653.980665c17.530258-12.932544 29.598108-25.282826 42.895973-41.388643C422.804539 632.342856 411.921677 651.266857 389.000642 653.980665L389.000642 653.980665 389.000642 653.980665zM244.448408 216.673831c38.70451 74.452689 84.10656 130.653689 132.37796 185.269587-43.434232-41.010019-98.956779-100.772124-110.766756-115.637694C251.961522 268.547269 239.036141 240.399185 244.448408 216.673831L244.448408 216.673831 244.448408 216.673831zM321.296657 634.012891c24.413016-11.206226 42.080397-23.080671 62.188364-39.186488C367.549074 616.384395 349.658611 636.492362 321.296657 634.012891L321.296657 634.012891 321.296657 634.012891zM258.900561 598.599334c45.829791-11.084453 65.835428-20.100804 93.604888-32.703843C327.708694 586.520227 290.283316 608.947006 258.900561 598.599334L258.900561 598.599334 258.900561 598.599334zM201.575971 536.312732c45.963845 2.467191 69.704548 0.979304 134.00297-8.192589-24.394596 10.151197-43.040259 17.523095-70.039169 20.574594C244.775866 551.041178 218.198557 551.035038 201.575971 536.312732L201.575971 536.312732 201.575971 536.312732zM176.175465 459.403085c49.497321 15.280008 74.529437 21.151739 149.611459 28.122501-28.447912 2.49789-62.08808 5.595438-91.018993 1.3743C213.860762 485.854527 187.920974 477.933113 176.175465 459.403085L176.175465 459.403085 176.175465 459.403085zM167.039387 370.427634c56.800657 38.033221 94.496188 54.299697 163.687036 79.904865-56.163137-13.594623-92.214215-23.357987-109.710704-30.729885C200.11776 410.795017 173.678598 393.83781 167.039387 370.427634L167.039387 370.427634 167.039387 370.427634zM539.018354 482.358913c-8.991792-2.604314-17.715477-4.244674-25.372877-5.117554 4.683672 3.477194 10.837836 7.346315 15.920598 8.328689C532.781302 486.060211 537.192775 485.593584 539.018354 482.358913L539.018354 482.358913 539.018354 482.358913zM539.018354 482.358913" p-id="8325"></path></svg>