<?xml version="1.0" standalone="no"?><!DOCTYPE svg PUBLIC "-//W3C//DTD SVG 1.1//EN" "http://www.w3.org/Graphics/SVG/1.1/DTD/svg11.dtd"><svg t="1605775097728" class="icon" viewBox="0 0 1024 1024" version="1.1" xmlns="http://www.w3.org/2000/svg" p-id="9887" xmlns:xlink="http://www.w3.org/1999/xlink" width="200" height="200"><defs><style type="text/css"></style></defs><path d="M249.756098 671.843902c24.775805 41.714263 23.179863 65.00402 13.259551 81.590322s-13.956371 36.724137 4.400702 40.115825c18.357073 3.391688 66.257795-5.794341 83.525932-32.096156 17.268137-26.299317 7.340332-56.702127 41.177288-79.364995" fill="#54C6D5" p-id="9888"></path><path d="M256.197307 668.017639c23.479571 39.531395 26.539083 67.047024 13.247064 89.265327-4.670439 7.807376-7.375298 15.577288-7.340332 21.111883 0.029971 4.69042 1.733307 6.873288 6.673483 7.784897 8.429268 1.558478 24.05401-0.134868 38.564839-4.692917 17.045854-5.354771 30.540176-13.791532 37.338537-24.146419 4.528078-6.898263 7.023141-13.746576 10.097639-26.024586 0.207298-0.82919 0.354654-1.418615 0.754263-3.039531 3.279298-13.274537 5.174946-19.341112 9.028683-26.79883 5.184937-10.0352 12.635161-18.414517 23.387161-25.614985a7.492683 7.492683 0 0 1 8.339356 12.450342c-15.484878 10.369873-20.322654 19.733229-26.206907 43.557463-0.404605 1.633405-0.551961 2.235317-0.766752 3.084488-3.451629 13.784039-6.433717 21.963551-12.110673 30.607609-9.00121 13.71161-25.327766 23.921639-45.37319 30.220488-16.666224 5.234888-34.671141 7.182985-45.777795 5.132488-12.233054-2.260293-18.864078-10.754498-18.936507-22.430595-0.052449-8.696507 3.511571-18.944 9.468253-28.896781 10.080156-16.848546 7.650029-38.689717-13.269541-73.917814a7.492683 7.492683 0 1 1 12.882419-7.652527z" fill="#524F75" p-id="9889"></path><path d="M755.429776 593.318088c-18.998946 70.723434-88.755824 161.302478-247.355942 165.940449H384.836683c-67.721366 0-121.910946-20.3776-155.665483-56.81202-6.895766-7.440234-18.911532-25.669932-22.900137-37.655727s-6.191454-19.156293-2.919648-27.922731c-8.102088-5.681951-21.6064-16.776117-26.90123-32.036215-5.9392-17.12078-3.87122-32.802966-3.311765-41.109854s1.268761-18.996449 3.311765-30.21799C192.659356 444.443473 275.668293 379.629268 369.032117 379.629268h24.308761c78.538302 0 167.361561 70.88078 183.653151 167.491434 1.883161 11.186576 10.150088 54.89639 17.425483 62.961015 22.797737 25.287805 75.166595 27.223415 100.347005 4.328273 3.496585-3.181893 8.20199-7.729951 14.113717-13.641678a19.992976 19.992976 0 0 0 5.137483-19.428527c-1.266263-4.605502-2.347707-7.899785-3.241834-9.887844-1.620917-3.356722-4.058537-13.664156-14.201132-23.477073-10.140098-9.815415-43.302712-25.172917-36.824039-30.0032 1.04398-0.779239 6.096546-3.856234 14.500839-5.527102 35.04078-6.978185 55.033756 18.334595 62.179278 28.082575 0.779239 1.063961 1.531005 2.122927 2.257795 3.171903 0.709307-1.051473 1.448585-2.132917 2.215337-3.246829 6.493659-9.435785 28.040117-33.929366 62.478985-27.83282 7.128039 1.258771 13.59922 4.538068 14.990361 5.354771 7.255415 4.265834-35.273054 30.0032-42.376117 38.087805s-15.782088 19.703259-20.567414 37.256117z" fill="#6ED8E6" p-id="9890"></path><path d="M755.429776 593.318088c4.785327-17.550361 13.464351-29.171512 20.564917-37.256117s49.631532-33.821971 42.376117-38.087805c-1.391141-0.816702-7.862322-4.096-14.990361-5.354771-34.438868-6.096546-55.985327 18.397034-62.478986 27.83282-0.766751 1.111415-3.693893 1.138888-4.473131 0.074926-7.143024-9.745483-27.136-35.060761-62.179278-28.082575-8.401795 1.670868-13.456859 4.750361-14.500839 5.527102-6.478673 4.830283 26.686439 20.187785 36.824039 30.0032 10.142595 9.815415 12.577717 20.122849 14.201131 23.477073 0.891629 1.988059 1.975571 5.282341 3.241835 9.887844a19.980488 19.980488 0 0 1-5.137483 19.428527c-5.911727 5.911727-10.617132 10.459785-14.113717 13.641678-25.18041 22.895141-77.549268 20.959532-100.347005-4.328273-7.272898-8.064624-15.542322-51.774439-17.425483-62.961015C560.702439 450.510049 471.87918 379.629268 393.340878 379.629268h-24.308761c-93.363824 0-176.372761 64.814205-192.581932 153.874732-2.040507 11.219044-2.749815 21.908605-3.311765 30.21799s-2.629932 23.986576 3.311765 41.109854c5.294829 15.260098 18.801639 26.354263 26.90123 32.036215-3.271805 8.766439-1.066459 15.936937 2.919648 27.922731s16.004371 30.215493 22.900137 37.655727C262.928234 738.880937 317.115317 759.258537 384.836683 759.258537h123.234654c158.602615-4.637971 228.356995-95.217015 247.358439-165.940449z m-17.245659-69.294829l0.504507 19.673287c2.327727-13.49682 2.342712-21.444059 0.044956-23.834224-3.963629 3.908683 0.187317 3.067005-0.549463 4.160937zM162.291512 609.744546c-4.930185-14.211122-5.666966-26.559063-4.438166-42.680819-0.022478 0.294712 0.277229-3.544039 0.332176-4.350751 0.971551-14.408429 1.718322-21.993522 3.519063-31.891356C179.127571 435.095102 267.910868 364.643902 369.032117 364.643902h24.308761c89.862244 0 181.615141 80.269112 198.428722 179.984235 3.69639 21.931083 11.029229 52.371356 13.776546 55.41838 17.103298 18.971473 59.946459 20.727259 79.137717 3.2768 3.291785-2.994576 7.844839-7.390283 13.59922-13.149658a4.995122 4.995122 0 0 0 1.286244-4.857757c-1.078946-3.916176-1.958088-6.601054-2.460098-7.717463-0.711805-1.65838-2.637424-6.643512-3.386692-8.234459a35.575259 35.575259 0 0 0-7.565113-10.624624c-1.948098-1.888156-6.011629-4.707902-13.714107-9.570654-11.341424-7.145522-14.4384-9.183532-18.289639-12.270517-3.391688-2.719844-5.879259-5.24238-7.709971-8.3968-4.250849-7.337834-3.366712-16.788605 4.355747-22.542985 4.243356-3.16441 11.731044-6.458693 20.529951-8.209483 19.733229-3.931161 37.445932 0.024976 52.641093 9.900332a82.299629 82.299629 0 0 1 14.76558 12.215571 86.552976 86.552976 0 0 1 15.007844-11.873405c15.295063-9.5232 32.945327-13.544273 52.253971-10.12761 7.555122 1.338693 15.335024 4.465639 19.972995 7.192975 8.906302 5.237385 10.047688 14.942907 6.151492 22.587942-1.570966 3.08199-3.80878 5.746888-6.883278 8.691512-3.906185 3.751337-9.111102 7.882302-16.910985 13.646673l-2.362693 1.738303c-15.857015 11.621151-17.52039 12.879922-18.704234 14.228605-8.419278 9.585639-13.976351 18.869073-17.368039 31.306926-11.498771 42.815688-37.555824 84.072898-76.360429 115.462244-46.334751 37.4784-108.291746 59.272117-185.014322 61.514927L384.836683 774.243902c-71.018146 0-129.508527-21.51399-166.659746-61.612331-9.238478-9.972761-21.778732-30.040663-26.126986-43.1104-3.986107-11.983298-5.839298-19.433522-5.374751-26.524098-11.131629-9.230985-19.800663-20.040429-24.383688-33.252527z" fill="#524F75" p-id="9891"></path><path d="M192.312195 574.439024m-7.492683 0a7.492683 7.492683 0 1 0 14.985366 0 7.492683 7.492683 0 1 0-14.985366 0Z" fill="#646092" p-id="9892"></path><path d="M402.107317 404.604878m-7.492683 0a7.492683 7.492683 0 1 0 14.985366 0 7.492683 7.492683 0 1 0-14.985366 0Z" fill="#646092" p-id="9893"></path><path d="M457.053659 457.053659m-7.492683 0a7.492683 7.492683 0 1 0 14.985365 0 7.492683 7.492683 0 1 0-14.985365 0Z" fill="#646092" p-id="9894"></path><path d="M452.058537 422.087805m-4.995122 0a4.995122 4.995122 0 1 0 9.990244 0 4.995122 4.995122 0 1 0-9.990244 0Z" fill="#646092" p-id="9895"></path><path d="M504.507317 477.034146m-4.995122 0a4.995122 4.995122 0 1 0 9.990244 0 4.995122 4.995122 0 1 0-9.990244 0Z" fill="#646092" p-id="9896"></path><path d="M372.136585 392.117073m-4.995122 0a4.995122 4.995122 0 1 0 9.990244 0 4.995122 4.995122 0 1 0-9.990244 0Z" fill="#646092" p-id="9897"></path><path d="M528.234146 473.287805m-6.243902 0a6.243902 6.243902 0 1 0 12.487805 0 6.243902 6.243902 0 1 0-12.487805 0Z" fill="#646092" p-id="9898"></path><path d="M545.717073 515.746341m-6.243902 0a6.243902 6.243902 0 1 0 12.487805 0 6.243902 6.243902 0 1 0-12.487805 0Z" fill="#646092" p-id="9899"></path><path d="M708.058537 615.64878m-3.746342 0a3.746341 3.746341 0 1 0 7.492683 0 3.746341 3.746341 0 1 0-7.492683 0Z" fill="#646092" p-id="9900"></path><path d="M563.2 573.190244m-6.243902 0a6.243902 6.243902 0 1 0 12.487804 0 6.243902 6.243902 0 1 0-12.487804 0Z" fill="#646092" p-id="9901"></path><path d="M299.707317 409.6m-4.995122 0a4.995122 4.995122 0 1 0 9.990244 0 4.995122 4.995122 0 1 0-9.990244 0Z" fill="#646092" p-id="9902"></path><path d="M219.785366 601.912195m-4.995122 0a4.995122 4.995122 0 1 0 9.990244 0 4.995122 4.995122 0 1 0-9.990244 0Z" fill="#646092" p-id="9903"></path><path d="M579.434146 611.902439m-4.995122 0a4.995122 4.995122 0 1 0 9.990244 0 4.995122 4.995122 0 1 0-9.990244 0Z" fill="#646092" p-id="9904"></path><path d="M656.858537 644.370732m-4.995122 0a4.995122 4.995122 0 1 0 9.990244 0 4.995122 4.995122 0 1 0-9.990244 0Z" fill="#646092" p-id="9905"></path><path d="M194.809756 536.97561m-4.995122 0a4.995122 4.995122 0 1 0 9.990244 0 4.995122 4.995122 0 1 0-9.990244 0Z" fill="#646092" p-id="9906"></path><path d="M188.565854 603.160976m-3.746342 0a3.746341 3.746341 0 1 0 7.492683 0 3.746341 3.746341 0 1 0-7.492683 0Z" fill="#646092" p-id="9907"></path><path d="M211.043902 485.77561m-3.746341 0a3.746341 3.746341 0 1 0 7.492683 0 3.746341 3.746341 0 1 0-7.492683 0Z" fill="#646092" p-id="9908"></path><path d="M247.258537 462.04878m-2.497561 0a2.497561 2.497561 0 1 0 4.995122 0 2.497561 2.497561 0 1 0-4.995122 0Z" fill="#646092" p-id="9909"></path><path d="M232.273171 459.55122m-2.497561 0a2.497561 2.497561 0 1 0 4.995122 0 2.497561 2.497561 0 1 0-4.995122 0Z" fill="#646092" p-id="9910"></path><path d="M434.57561 412.097561m-2.497561 0a2.497561 2.497561 0 1 0 4.995122 0 2.497561 2.497561 0 1 0-4.995122 0Z" fill="#646092" p-id="9911"></path><path d="M497.014634 454.556098m-2.497561 0a2.497561 2.497561 0 1 0 4.995122 0 2.497561 2.497561 0 1 0-4.995122 0Z" fill="#646092" p-id="9912"></path><path d="M539.473171 494.517073m-2.497561 0a2.497561 2.497561 0 1 0 4.995122 0 2.497561 2.497561 0 1 0-4.995122 0Z" fill="#646092" p-id="9913"></path><path d="M681.834146 634.380488m-2.497561 0a2.497561 2.497561 0 1 0 4.995122 0 2.497561 2.497561 0 1 0-4.995122 0Z" fill="#646092" p-id="9914"></path><path d="M564.44878 534.478049m-2.49756 0a2.497561 2.497561 0 1 0 4.995121 0 2.497561 2.497561 0 1 0-4.995121 0Z" fill="#646092" p-id="9915"></path><path d="M259.746341 444.565854m-2.497561 0a2.497561 2.497561 0 1 0 4.995122 0 2.497561 2.497561 0 1 0-4.995122 0Z" fill="#646092" p-id="9916"></path><path d="M277.229268 427.082927m-2.497561 0a2.497561 2.497561 0 1 0 4.995122 0 2.497561 2.497561 0 1 0-4.995122 0Z" fill="#646092" p-id="9917"></path><path d="M319.687805 419.590244m-2.497561 0a2.497561 2.497561 0 1 0 4.995122 0 2.497561 2.497561 0 1 0-4.995122 0Z" fill="#646092" p-id="9918"></path><path d="M389.619512 414.595122m-2.497561 0a2.497561 2.497561 0 1 0 4.995122 0 2.497561 2.497561 0 1 0-4.995122 0Z" fill="#646092" p-id="9919"></path><path d="M437.073171 399.609756m-2.497561 0a2.497561 2.497561 0 1 0 4.995122 0 2.497561 2.497561 0 1 0-4.995122 0Z" fill="#646092" p-id="9920"></path><path d="M489.521951 424.585366m-2.497561 0a2.497561 2.497561 0 1 0 4.995122 0 2.497561 2.497561 0 1 0-4.995122 0Z" fill="#646092" p-id="9921"></path><path d="M521.990244 459.55122m-2.497561 0a2.497561 2.497561 0 1 0 4.995122 0 2.497561 2.497561 0 1 0-4.995122 0Z" fill="#646092" p-id="9922"></path><path d="M332.17561 394.614634m-2.497561 0a2.497561 2.497561 0 1 0 4.995122 0 2.497561 2.497561 0 1 0-4.995122 0Z" fill="#646092" p-id="9923"></path><path d="M259.746341 429.580488m-2.497561 0a2.497561 2.497561 0 1 0 4.995122 0 2.497561 2.497561 0 1 0-4.995122 0Z" fill="#646092" p-id="9924"></path><path d="M274.731707 449.560976m-2.497561 0a2.497561 2.497561 0 1 0 4.995122 0 2.497561 2.497561 0 1 0-4.995122 0Z" fill="#646092" p-id="9925"></path><path d="M739.023298 636.131278c-32.633132 59.546849-103.75118 119.975337-231.753678 123.636761H387.014556c-67.681405 0-124.08882-21.82119-157.823376-57.4464-6.890771-7.277893-18.811629-24.935649-22.797736-36.6592a169.269698 169.269698 0 0 1-4.860254-16.965932c55.728078 9.698029 94.590127 13.566751 116.583649 11.603669 39.581346-3.526556 74.554693-11.603668 93.810888-30.797425 63.168312 150.030985 252.745678 94.053151 327.095571 6.628527z" fill="#FFFFFF" p-id="9926"></path><path d="M609.404878 681.834146c-24.775805 38.542361-13.079727 62.424039-12.540254 77.851474 0.536976 15.429932-6.755902 37.183688-26.067044 39.3216-19.306146 2.137912-46.20238-12.065717-62.57639-34.378927-16.376507-22.310712-7.340332-52.391337-41.177288-73.328391" fill="#6ED8E6" p-id="9927"></path><path d="M603.103532 677.783102c-16.761132 26.069541-19.341112 45.100956-15.242615 70.770888 1.393639 8.726478 1.426107 8.971239 1.513522 11.393873 0.554459 15.936937-7.272898 30.270439-19.403551 31.614127-16.68121 1.845698-41.047415-11.383883-55.713093-31.36437-4.38322-5.971668-6.516137-11.626146-10.047688-24.775805a380.453463 380.453463 0 0 0-1.893151-6.895766c-5.781854-20.112859-13.809015-32.753015-31.331902-43.597425a7.49518 7.49518 0 0 0-7.8848 12.745054c13.91641 8.609093 19.975493 18.152273 24.815766 34.995824 0.514498 1.790751 0.826693 2.934634 1.823219 6.641015 4.001093 14.887961 6.611044 21.813698 12.440351 29.753444 17.600312 23.98158 46.896702 39.888546 69.442186 37.390985 21.603902-2.392663 33.524761-24.213854 32.728039-47.029073-0.117385-3.361717-0.142361-3.511571-1.693347-13.234575-3.566517-22.3232-1.478556-37.708176 13.049756-60.306108a7.492683 7.492683 0 1 0-12.602692-8.102088z" fill="#524F75" p-id="9928"></path><path d="M449.560976 674.341463m-9.990244 0a9.990244 9.990244 0 1 0 19.980488 0 9.990244 9.990244 0 1 0-19.980488 0Z" fill="#524F75" p-id="9929"></path><path d="M206.04878 539.473171c18.621815 0 33.717073-16.339044 33.717074-36.491864 0-20.155317-15.095259-38.187707-33.717074-38.187707S172.331707 482.82599 172.331707 502.981307C172.331707 523.134127 187.426966 539.473171 206.04878 539.473171z" fill="#FFFFFF" p-id="9930"></path><path d="M206.04878 546.965854C183.151141 546.965854 164.839024 527.14521 164.839024 502.981307c0-24.401171 18.476956-45.68039 41.209756-45.68039s41.209756 21.27922 41.209757 45.68039C247.258537 527.14521 228.94642 546.965854 206.04878 546.965854z m0-14.985366c14.34599 0 26.22439-12.857444 26.224391-28.999181 0-16.556332-12.275512-30.695024-26.224391-30.695024S179.82439 486.424976 179.82439 502.981307C179.82439 519.123044 191.70279 531.980488 206.04878 531.980488z" fill="#524F75" p-id="9931"></path><path d="M187.247141 513.101424C189.077854 515.486595 191.787707 516.995122 194.809756 516.995122c5.517112 0 9.990244-5.032585 9.990244-11.239024s-4.473132-11.239024-9.990244-11.239025c-5.449678 0-9.882849 4.910205-9.990244 11.011747l7.407766 1.211317-4.980137 6.361287z" fill="#232323" p-id="9932"></path><path d="M295.960976 541.970732c25.51758 0 46.204878-20.48999 46.204878-45.765308C342.165854 470.930107 319.06841 449.560976 293.550829 449.560976S249.756098 470.930107 249.756098 496.205424 270.443395 541.970732 295.960976 541.970732z" fill="#FFFFFF" p-id="9933"></path><path d="M295.960976 549.463415c-29.641054 0-53.697561-23.829229-53.697561-53.257991C242.263415 466.264663 264.346849 442.068293 293.550829 442.068293 323.404176 442.068293 349.658537 466.968976 349.658537 496.205424 349.658537 525.634185 325.602029 549.463415 295.960976 549.463415z m0-14.985366c21.396605 0 38.712195-17.150751 38.712195-38.272625C334.673171 475.428215 315.29959 457.053659 293.550829 457.053659 272.943454 457.053659 257.24878 474.251863 257.24878 496.205424 257.24878 517.327298 274.564371 534.478049 295.960976 534.478049z" fill="#524F75" p-id="9934"></path><path d="M273.048351 508.910517A14.985366 14.985366 0 1 0 284.721951 484.526829a14.985366 14.985366 0 0 0-14.97038 15.687181l9.975258 1.396136-6.678478 7.300371z" fill="#232323" p-id="9935"></path><path d="M368.232898 339.770693a7.492683 7.492683 0 0 0 14.768078-2.532527L371.637073 271.017834C366.716878 247.815493 344.356215 233.122341 321.610927 237.95762S284.409756 265.310907 289.28 288.221034a7.492683 7.492683 0 1 0 14.658185-3.114458c-3.156917-14.852995 6.168976-29.383805 20.784703-32.490771 14.570771-3.096976 28.956722 6.318829 32.17358 21.091902l11.338927 66.062986z" fill="#524F75" p-id="9936"></path><path d="M340.017951 277.436566c0.207298 0.981541 0.339668 1.968078 0.38962 2.949619 0.499512 9.128585-5.654478 17.308098-14.538303 19.196254-9.945288 2.115434-19.778185-4.345756-21.931083-14.475863l-0.362146-1.708332-14.660683 3.114458 0.364644 1.71083c3.866224 18.189737 21.628878 29.860839 39.703727 26.017092 16.15922-3.434146 27.280859-18.222205 26.389229-34.666146a34.456351 34.456351 0 0 0-0.699317-5.252371l-14.658185 3.114459z" fill="#524F75" p-id="9937"></path><path d="M340.135337 277.876137l-0.154849-0.724293c-0.437073-2.055493-2.14041-3.241834-3.611473-2.927142-1.473561 0.312195-2.547512 2.090459-2.110439 4.140957l0.154848 0.72679a7.492683 7.492683 0 1 1-14.658185 3.114458l-0.154849-0.724292c-2.112937-9.945288 3.868722-19.838127 13.654166-21.916098 9.785444-2.080468 19.27118 4.520585 21.386615 14.468371l0.154849 0.724292a7.492683 7.492683 0 1 1-14.660683 3.116957z" fill="#524F75" p-id="9938"></path><path d="M485.376 232.46798c31.049678 6.601054 50.787902 37.353522 44.1344 68.657952a7.492683 7.492683 0 0 1-14.658185-3.111961c4.942673-23.249795-9.673054-46.015063-32.590674-50.887805s-45.530537 9.985249-50.470712 33.230049l-29.658536 89.912195a7.492683 7.492683 0 0 1-14.228605-4.70041l29.318868-88.743337c6.835824-31.067161 37.241132-50.925268 68.155942-44.356683z" fill="#524F75" p-id="9939"></path><path d="M468.260215 287.793951c-0.257249 1.20882-0.412098 2.422634-0.474537 3.636449-0.574439 11.338927 7.36281 21.621385 18.844098 24.061502 12.839961 2.729834 25.380215-5.282341 28.047609-17.832585l0.424586-2.005541 14.660683 3.114458-0.424586 2.008039c-4.398205 20.689795-24.933151 33.814478-45.820253 29.373815-18.669268-3.968624-31.6416-20.774712-30.695025-39.476449 0.099902-2.008039 0.359649-4.008585 0.781737-5.994146l14.655688 3.114458z" fill="#524F75" p-id="9940"></path><path d="M468.217756 287.719024l0.229776-1.078946c1.073951-5.057561 5.34478-8.142049 9.216-7.317854 3.873717 0.824195 6.518634 5.377249 5.442185 10.432313l-0.229776 1.081443a7.492683 7.492683 0 0 0 14.658186 3.114459l0.229775-1.078946c2.729834-12.842459-4.667941-25.587512-16.983414-28.207454-12.317971-2.617444-24.261307 6.019122-26.991142 18.861581l-0.229775 1.078946A7.492683 7.492683 0 1 0 468.217756 287.719024z" fill="#524F75" p-id="9941"></path><path d="M426.975532 166.872039a14.830517 14.780566 90 1 0 29.561131 0 14.830517 14.780566 90 1 0-29.561131 0Z" fill="#7BFFFB" p-id="9942"></path><path d="M441.756098 186.700176c-10.926829 0-19.775688-8.881327-19.775688-19.825639 0-10.94681 8.851356-18.30962 19.775688-18.30962 10.926829 0 19.775688 7.36281 19.775687 18.30962 0 10.944312-8.848859 19.825639-19.775687 19.825639z m0-9.990244c5.402224 0 9.785444-4.400702 9.785443-9.835395 0-5.43719-4.385717-9.353366-9.785443-9.353366s-9.785444 3.916176-9.785444 9.353366a9.807922 9.807922 0 0 0 9.785444 9.835395z" fill="#524F75" p-id="9943"></path><path d="M370.343337 216.561015a24.2688 24.188878 90 1 0 48.377756 0 24.2688 24.188878 90 1 0-48.377756 0Z" fill="#7BFFFB" p-id="9944"></path><path d="M394.532215 247.076215c-16.811083 0-30.43278-13.666654-30.432781-30.512703s13.6192-30.512702 30.432781-30.512702 30.43278 13.666654 30.43278 30.512702-13.621698 30.512702-30.43278 30.512703z m0-13.784039c9.905327 0 17.944976-6.770888 17.944975-16.731161s-8.039649-16.693698-17.944975-16.693698-17.944976 6.733424-17.944976 16.693698 8.037151 16.731161 17.944976 16.731161z" fill="#524F75" p-id="9945"></path><path d="M359.783649 134.513639a12.135649 12.09319 90 1 0 24.18638 0 12.135649 12.09319 90 1 0-24.18638 0Z" fill="#7BFFFB" p-id="9946"></path><path d="M371.876839 151.64441c-9.443278 0-17.09081-7.672507-17.09081-17.130771 0-9.455766 7.647532-15.559805 17.09081-15.559805 9.44078 0 17.088312 6.104039 17.088312 15.559805 0.002498 9.458263-7.645034 17.130771-17.088312 17.130771z m0-9.990244a7.118049 7.118049 0 0 0 7.098068-7.140527A7.118049 7.118049 0 0 0 371.876839 127.37561a7.118049 7.118049 0 0 0-7.100566 7.138029 7.123044 7.123044 0 0 0 7.100566 7.140527z" fill="#524F75" p-id="9947"></path><path d="M196.787824 647.375298c26.334283 11.576195 62.711259 16.151727 109.23083 13.938887 46.851746-2.227824 81.225678-11.588683 103.159258-28.492175a7.492683 7.492683 0 1 0-9.151063-11.86841c-19.06638 14.695649-50.653034 23.294751-94.722498 25.392702-44.404137 2.112937-78.600741-2.190361-102.489912-12.690107a7.492683 7.492683 0 1 0-6.026615 13.719103z" fill="#524F75" p-id="9948"></path><path d="M396.68761 619.382634c11.291473 0.641873 15.217639 4.011083 15.409951 15.130225a7.492683 7.492683 0 1 0 14.982868-0.264742c-0.342166-19.648312-10.96679-28.7744-29.546146-29.825873a7.492683 7.492683 0 1 0-0.846673 14.96039z" fill="#524F75" p-id="9949"></path><path d="M578.187863 686.020059c-10.83442 12.248039-15.037815 33.589698-11.506263 52.54119 3.29678 17.697717 2.747317 24.203863-1.690849 26.089522a4.995122 4.995122 0 1 0 3.906186 9.196019c6.066576-2.57998 9.146068-7.827356 9.767961-15.187668 0.459551-5.379746-0.257249-11.69358-2.162888-21.928585-3.009561-16.149229 0.581932-34.383922 9.168546-44.094439a4.990127 4.990127 0 0 0-0.434576-7.048118 4.982634 4.982634 0 0 0-7.048117 0.432079z" fill="#52C7D7" p-id="9950"></path><path d="M732.174985 526.126205c1.44359 5.309815 1.073951 10.55719-1.163863 15.951922a6.2464 6.2464 0 0 0 11.538732 4.780332c3.279298-7.924761 3.856234-15.999376 1.675863-24.009054a6.23641 6.23641 0 0 0-3.611473-4.120976c-0.581932-0.244761-1.231298 1.166361-1.870673 1.10642-0.721795-0.064937-1.438595-1.573463-2.180371-1.371161a6.241405 6.241405 0 0 0-4.388215 7.662517zM585.458263 587.249015c0.292215 1.131395 0.686829 3.106966 1.268761 6.263883 0.142361 0.789229 1.333698 7.425249 1.718322 9.485736 1.131395 6.109034 2.048 10.442302 2.979591 13.754068 0.189815 0.676839 0.382127 1.31122 0.574439 1.903142a71.415259 71.415259 0 0 0 4.907707 11.38638c1.161366 2.175376 5.154966 8.916293 5.799337 10.200039a7.497678 7.497678 0 0 0 10.057678 3.336742 7.497678 7.497678 0 0 0 3.336741-10.057678c-0.936585-1.86318-5.060059-8.818888-5.971668-10.52722a56.03278 56.03278 0 0 1-3.898693-9.02119c-0.12238-0.367141-0.249756-0.796722-0.384624-1.276254-0.771746-2.747317-1.61842-6.743415-2.669893-12.425365-0.372137-2.013034-1.560976-8.624078-1.713327-9.455766-0.641873-3.504078-1.086439-5.704429-1.493541-7.295376a7.492683 7.492683 0 0 0-14.51083 3.728859z" fill="#524F75" p-id="9951"></path></svg>